<svg id="Layer_1" data-name="Layer 1" xmlns="http://www.w3.org/2000/svg" viewBox="0 0 1276.9 695.843">
  <g id="Layer_8" data-name="Layer 8">
    <path d="M70.57,672.641c-46.395,0-80.066-47.124-68.157-95.173C21.431,500.753,75.913,397.9,228.2,349.11,430.457,284.322,419.119,23.157,580.666,23.157s162.4,132.632,210.565,146.12,209.623-26.569,245.689,91.665c66.669,218.557,156.156,113.2,225.6,281.5a310.118,310.118,0,0,1,11.2,32.372c13.994,48.6-19.978,97.826-67.447,97.826Z" fill="#f3f5fd"></path>
    <path d="M298.482,672.641H69.328c-12.567-32.7,25.2-48.832,37.2-27.638-7.162-12.643-9.067-28.667,5.809-38.983,15.59-8.177,34.358,1.171,37.231,15.962-3.822-19.695,14.384-39.323,34.645-43.786,52-11.446,63.6,39.848,58.885,47.913C256.836,602.61,313.624,631.612,298.482,672.641Z" fill="#8ddbe0"></path>
  </g>
  <rect x="317.998" width="621.087" height="449.786" fill="#dee8f5"></rect>
  <rect x="317.998" width="621.087" height="37.051" fill="#c1d8ed"></rect>
  <circle cx="920.633" cy="18.526" r="9.296" fill="#fff"></circle>
  <rect x="347.592" y="238.543" width="427.304" height="77.532" fill="#fff"></rect>
  <rect x="347.592" y="341.47" width="427.304" height="77.532" fill="#fff"></rect>
  <rect x="347.593" y="63.107" width="150.303" height="151.607" fill="#c1d8ed"></rect>
  <g>
    <rect x="420.548" y="102.499" width="4.393" height="72.822" fill="#fff"></rect>
    <rect x="386.333" y="136.714" width="72.822" height="4.393" fill="#fff"></rect>
  </g>
  <rect x="523.713" y="63.107" width="392.835" height="151.607" fill="#c1d8ed"></rect>
  <rect x="798.374" y="238.543" width="115.826" height="50.356" fill="#fff"></rect>
  <rect x="798.374" y="304.424" width="115.826" height="50.356" fill="#fff"></rect>
  <rect x="798.374" y="368.646" width="115.826" height="50.356" fill="#fff"></rect>
  <g>
    <g>
      <path d="M241.807,662.715c2.214-18.618,2.214-20.534,2.214-21.164h-21c0-.063,0-.145.005-.245-.074,1.555-1.134,11.036-2.072,18.929Z" fill="#EDA59F"></path>
      <path d="M158.131,665.225s.071-21.747.071-23.674h-21c0,1.921-.071,23.606-.071,23.606Z" fill="#EDA59F"></path>
      <path d="M212.56,656.084l36.994-.631c-1.738-44.031-1.845-90.218-2.386-134.356-7.221-47.574-11.023-99.816-19.935-147.049l-.267.079-.781-5.33-76.078-4.7s-2.195,37.28-2.96,49.7c-3.707,60.281-10.909,171.948-15.428,241.085l36.869,3.115c6.642-67.786,16.922-166.556,23.245-237.767,7.261,34.67,12.2,70.568,18.514,104.941C211.61,568.206,212.677,613.185,212.56,656.084Z" fill="#55affc"></path>
      <path d="M183.66,673.347a4.108,4.108,0,0,0,4.076-4.427h0a4.107,4.107,0,0,0-2.659-3.529L160.635,657.2a3.463,3.463,0,0,0-2.873.32,19.108,19.108,0,0,1-11.467,3.4,17.035,17.035,0,0,1-8.821-3.222,1.546,1.546,0,0,0-2.527,1.2v11.952a2.678,2.678,0,0,0,2.689,2.678Z" fill="#c1d8ed"></path>
      <path d="M267.393,673.347a4.107,4.107,0,0,0,4.076-4.427h0a4.108,4.108,0,0,0-2.658-3.529L244.368,657.2a3.461,3.461,0,0,0-2.872.32,19.112,19.112,0,0,1-11.468,3.4,17.031,17.031,0,0,1-8.82-3.222,1.547,1.547,0,0,0-2.528,1.2v11.952a2.678,2.678,0,0,0,2.689,2.678Z" fill="#c1d8ed"></path>
      <g>
        <path d="M174.645,261.306s7.732-4.1,6.006-25.157l15.976-2.962s-1.8,18.879,6.287,24.872Z" fill="#EDA59F"></path>
        <path d="M171.586,227.984c1.106,6.389,4.592,12.439,10.227,14.5,6.69,2.45,11.645,2.616,19.358,2.616,10.525,0,10.177-10.977,10.472-22.039.3-11.1-.586-23.018-4.746-26.888-8.3-7.724-32.673-2.833-35.637,10.087C169.727,212.944,170.533,221.9,171.586,227.984Z" fill="#EDA59F"></path>
        <path d="M217.285,202.6s4.31-.962,3.13-5.261c-.782-2.85-4.434-2.217-4.434-2.217s3.458-.633,3.458-3.652c0-1.9-1.462-5.125-5.872-3.283-5.173,2.161-11.074,1.884-15.56,1.129a51.841,51.841,0,0,0-7.708-1.088l-.013,0v0a29.7,29.7,0,0,0-8.814,1.179c-8.02,2.4-20.345,9.622-17.577,25.893,2.99,17.587,13.7,25.315,15.174,26.385,2.77,2.014,19.8,2.422,21.487.734,2.526-2.526,3.9-12.681,3.388-30.373,6.979-1.1,11.775-1.576,11.775-1.576s5.8.217,5.8-4.022S217.285,202.6,217.285,202.6Z" fill="#0f1011"></path>
        <path d="M209.036,225.16a6.143,6.143,0,1,1-12.244,1,6.042,6.042,0,0,1,5.62-6.624C206.79,219.4,208.759,221.779,209.036,225.16Z" fill="#EDA59F"></path>
      </g>
    </g>
    <path d="M265.019,243.838l.465.2-5.817.939,5.71,10.9s21.173,4.955,31.08-6.19a1.888,1.888,0,0,0-1.6-3.131c-5.71.58-15.891,1.269-20.477-.54,2.017-.99,4.691-2.506,4.271-3.412C277.546,240.224,267.961,243.363,265.019,243.838Z" fill="#EDA59F"></path>
    <rect x="247.267" y="95.994" width="150.303" height="151.607" fill="#fdb754"></rect>
    <path d="M327.77,243.838l.466.2-5.817.939,5.71,10.9s21.173,4.955,31.08-6.19a1.888,1.888,0,0,0-1.6-3.131c-5.709.58-15.891,1.269-20.476-.54,2.017-.99,4.691-2.506,4.271-3.412C340.3,240.224,330.713,243.363,327.77,243.838Z" fill="#EDA59F"></path>
    <path d="M321.722,242.89l-53.2,38.393-12.347-5.813,18.978-15.722-13.911-16.791L234.38,265.21,222.4,259.57a19.411,19.411,0,0,0-2.007-.945l-1.931-.909-.095.2a31.941,31.941,0,0,0-7.714-1.2c-4.015-.172-23.606-.2-37.95-.2-9.636,0-17.547,2.957-22.116,7.525-15.751,15.751,3.582,42.591,3.582,63.6s-9.5,30.418-8.8,41.2c1.1,16.945,83.429,12.941,87.624,3.316,4.319-9.926-4.447-16.042-4.063-48.509.1-8.74,1.619-18.476,2.61-27.758l6.087-5.042,27.423,12.911a10.906,10.906,0,0,0,11.024-1.023l58.414-42.153Z" fill="#2f3235"></path>
  </g>
  <g>
    <g>
      <rect x="1118.416" y="442.377" width="10.59" height="56.156" transform="translate(-78.095 271.166) rotate(-13.302)" fill="#f0f6ff"></rect>
      <g>
        <rect x="1107.788" y="459.272" width="48.777" height="5.818" transform="translate(472.279 1491.73) rotate(-79.548)" fill="#c1d8ed"></rect>
        <rect x="1133.404" y="437.934" width="5.386" height="5.818" transform="translate(490.637 1474.497) rotate(-79.225)" fill="#dee8f5"></rect>
      </g>
      <rect x="1122.003" y="448.728" width="3.415" height="50.584" transform="translate(-95.539 444.857) rotate(-21.502)" fill="#fdb754"></rect>
      <rect x="1111.968" y="470.455" width="27.948" height="35.72" fill="#c1d8ed"></rect>
    </g>
    <g>
      <rect x="1026.909" y="570.697" width="10.453" height="102.836" fill="#c1d8ed"></rect>
      <rect x="1018.306" y="570.697" width="10.453" height="102.836" fill="#dee8f5"></rect>
    </g>
    <g>
      <rect x="1157.115" y="570.697" width="10.453" height="102.836" fill="#c1d8ed"></rect>
      <rect x="1148.512" y="570.697" width="10.453" height="102.836" fill="#dee8f5"></rect>
    </g>
    <g>
      <rect x="1055.581" y="570.697" width="10.453" height="102.836" fill="#c1d8ed"></rect>
      <rect x="1046.978" y="570.697" width="10.453" height="102.836" fill="#dee8f5"></rect>
    </g>
    <g>
      <rect x="1185.786" y="570.697" width="10.453" height="102.836" fill="#c1d8ed"></rect>
      <rect x="1177.183" y="570.697" width="10.453" height="102.836" fill="#dee8f5"></rect>
    </g>
    <rect x="1055.645" y="504.871" width="140.594" height="68.291" fill="#c1d8ed"></rect>
    <rect x="1018.306" y="504.871" width="140.594" height="68.291" fill="#dee8f5"></rect>
    <g opacity="0.53">
      <rect x="1025.869" y="514.579" width="125.467" height="48.573" fill="#f3f5fd"></rect>
    </g>
    <circle cx="1088.603" cy="538.866" r="5.572" fill="#fff"></circle>
  </g>
  <g>
    <g>
      <path d="M879.445,456.188s-7.58,27.159-11.838,41.252a4.467,4.467,0,0,0,4.281,5.759h26.6a4.471,4.471,0,0,0,4.466-4.259l1.793-37.807Z" fill="#0f1011"></path>
      <path d="M920.211,516.6s-7.737-4.093-6.029-25.151L898.2,488.5s1.812,18.877-6.265,24.878Z" fill="#EDA59F"></path>
      <path d="M895.208,509.432l13.263-10.166-10.424-.1A28.725,28.725,0,0,1,895.208,509.432Z" opacity="0.15"></path>
      <path d="M923.24,483.279c-1.1,6.389-4.581,12.442-10.215,14.51a40.49,40.49,0,0,1-19.355,2.633C876.179,499,879.6,459.233,887.9,451.5s32.67-2.862,35.646,10.055C925.085,468.237,924.287,477.2,923.24,483.279Z" fill="#EDA59F"></path>
      <g>
        <circle cx="898.215" cy="476.931" r="1.449" fill="#0f1011"></circle>
        <circle cx="886.783" cy="476.004" r="1.449" fill="#0f1011"></circle>
        <line x1="888.108" y1="472.186" x2="884.269" y2="472.238" fill="none" stroke="#0f1011" stroke-linecap="round" stroke-miterlimit="10" stroke-width="1.362"></line>
        <line x1="901.339" y1="473.622" x2="897.554" y2="472.715" fill="none" stroke="#0f1011" stroke-linecap="round" stroke-miterlimit="10" stroke-width="1.362"></line>
        <path d="M897.555,488.343s-5.348.569-9.1-.737c0,0,.033,3.522,4.266,3.866S897.555,488.343,897.555,488.343Z" fill="#fff"></path>
      </g>
      <g opacity="0.15">
        <path d="M891.79,484.974a.5.5,0,0,0,.147-.978l-2.948-.9,2.058-4.593a.5.5,0,0,0-.912-.408l-2.521,5.626,4.03,1.234A.491.491,0,0,0,891.79,484.974Z"></path>
      </g>
      <path d="M878.533,459.444s2.561-20.713,35.75-15.626c8.274,1.268,20,7.728,21.9,28.9.868,9.712,4.216,18.869,6.77,24.665a4.471,4.471,0,0,1-4.083,6.286l-23.33.008a4.464,4.464,0,0,1-4.472-4.456c0-.066,0-.131,0-.2.168-3.971.3-10.694.074-20.97-1.213-5.865,2.018-10-2.672-8.652C891.056,474.4,879.841,459.779,878.533,459.444Z" fill="#0f1011"></path>
      <path d="M905.537,483.17a6.143,6.143,0,1,0,12.246.993,6.041,6.041,0,0,0-5.421-6.6c-.068-.007-.136-.012-.2-.017C907.778,477.4,905.812,479.788,905.537,483.17Z" fill="#EDA59F"></path>
    </g>
    <g>
      <path d="M856.932,671.219c-1.9-.318-23.335-3.979-23.335-3.979l3.535-20.7s21.377,3.651,23.271,3.968Z" fill="#EDA59F"></path>
      <path d="M821.369,691.076a4.107,4.107,0,0,0,3.693,4.751h0a4.107,4.107,0,0,0,3.92-2.039l12.112-22.754a3.463,3.463,0,0,0,.159-2.886,19.1,19.1,0,0,1-1.46-11.872,17.033,17.033,0,0,1,4.635-8.167,1.547,1.547,0,0,0-.767-2.691l-11.788-1.974a2.678,2.678,0,0,0-3.086,2.209Z" fill="#c1d8ed"></path>
    </g>
    <path d="M923.288,615.232c8.9.37,17.955.63,27.016.855l13.615.3,13.6.245,1.355.024a22.2,22.2,0,0,1,2.277,44.232l-134.4,16.319-5.476-39.72,133.8-20.655,3.632,44.256-13.809.893-13.8.834c-9.215.533-18.433,1.031-27.817,1.416Z" fill="#55affc"></path>
    <g>
      <path d="M957.192,662.522c-18.555-2.7-20.4-3.2-21.013-3.36l5.457-20.278c-.062-.017-.142-.039-.238-.06,1.52.332,10.95,1.773,18.815,2.916Z" fill="#EDA59F"></path>
      <path d="M980.37,680.572a4.108,4.108,0,0,1-2.724,5.366h0a4.106,4.106,0,0,1-4.236-1.258L957.2,664.638a3.466,3.466,0,0,1-.7-2.8,19.1,19.1,0,0,0-.82-11.934,17.038,17.038,0,0,0-6.1-7.139,1.546,1.546,0,0,1,.242-2.787l11.2-4.176a2.679,2.679,0,0,1,3.449,1.584Z" fill="#c1d8ed"></path>
    </g>
    <path d="M893.446,660.632c-5.632-.479-11.261-.826-16.89-1.15-5.628-.3-11.257-.6-16.883-.8l-8.44-.325-8.439-.243c-5.626-.188-11.25-.265-16.874-.372l1.949-40.41c10.529,1.473,21.072,2.826,31.612,4.212s21.091,2.662,31.641,3.96l15.833,1.866,15.845,1.776c10.568,1.136,21.137,2.264,31.73,3.194l-4.648,39.83c-10.522-1.534-21.067-2.87-31.613-4.2l-15.828-1.92-15.838-1.83c-10.565-1.167-21.127-2.351-31.7-3.432s-21.147-2.19-31.732-3.181a20.231,20.231,0,0,1,.7-40.339l1.253-.07c5.615-.33,11.232-.629,16.846-1.039l8.423-.576,8.42-.659c5.614-.422,11.227-.947,16.838-1.467,5.612-.547,11.224-1.115,16.832-1.817Z" fill="#55affc"></path>
    <polygon points="943.723 609.097 946.683 658.803 861.193 657.798 867.646 613.793 943.723 609.097" fill="#55affc"></polygon>
    <path d="M972.262,597.859l-22.657-70.244a20.061,20.061,0,0,0-5.628-9.575c-4.57-4.569-12.46-7.519-22.08-7.529-.72,5.61-34.78,5.63-35.04.13-1.3.02-2.31.04-2.94.07-13.76.593-19.3,5.889-21.058,13.861l-28.883,69.892a10.5,10.5,0,0,0,11.185,14.4l15.78-2.248c-.777,3.93-.9,6.986.637,10.52,4.189,9.63,86.519,13.63,87.619-3.31.011-.167.012-.331.018-.5l13.68-1.273a10.9,10.9,0,0,0,9.367-14.2ZM860.409,585.484l5.221-12.634c-.058,4.519-.3,8.484-.647,11.982Zm86.927,6.126-3.992.371a64.076,64.076,0,0,1-2.947-19.35c0-.765.033-1.525.081-2.281Z" fill="#2f3235"></path>
    <g>
      <g>
        <path d="M915.284,544.119l3.533,52.679a4.544,4.544,0,0,1-4.534,4.849H840.706a4.546,4.546,0,0,1-4.521-4.078l-5.444-52.679a4.544,4.544,0,0,1,4.52-5.011h75.488A4.545,4.545,0,0,1,915.284,544.119Z" fill="#9ebcea"></path>
        <rect x="843.68" y="595.302" width="83.65" height="6.344" rx="3.172" transform="translate(1771.01 1196.949) rotate(180)" fill="#9ebcea"></rect>
      </g>
      <circle cx="872.83" cy="570.763" r="7" fill="#fff"></circle>
    </g>
    <path d="M882.915,608.337c4.49,2.77,11.44,4.08,17.5,4.56l.341-11.04c-2.851-.08-7.231-.38-11.52-.21-1.939-1.581-3.055-2.051-5.044-4.04-2.119-2.118-7.677-3.39-8.726,0S878.975,605.9,882.915,608.337Z" fill="#EDA59F"></path>
    <path d="M886.857,510.641c.26,5.5,3.25,13.589,12.48,14.2,12.3.81,21.84-8.72,22.56-14.33h-.03C909.757,510.511,893.917,510.531,886.857,510.641Z" fill="#EDA59F"></path>
  </g>
  <polygon points="840.138 532.239 824.315 522.239 749.313 522.239 749.313 461.195 840.138 461.195 840.138 532.239" fill="#dee8f5"></polygon>
  <g>
    <path d="M762.662,491.152l20.439-9.918v3.881l-16.214,7.546v.087l16.214,7.589v3.838l-20.439-9.918Z" fill="#fff" stroke="#fff" stroke-miterlimit="10"></path>
    <path d="M787.805,505.9l10.522-31.262h3.709L791.514,505.9Z" fill="#fff" stroke="#fff" stroke-miterlimit="10"></path>
    <path d="M826.789,494.343l-20.439,9.832v-3.838l16.472-7.589v-.087l-16.472-7.589v-3.838l20.439,9.831Z" fill="#fff" stroke="#fff" stroke-miterlimit="10"></path>
  </g>
  <g>
    <rect x="717.934" y="102.499" width="4.393" height="72.822" fill="#fff"></rect>
    <rect x="683.719" y="136.714" width="72.822" height="4.393" fill="#fff"></rect>
  </g>
  <g opacity="0.61">
    <circle cx="281.647" cy="138.183" r="20.971" fill="#fff"></circle>
    <rect x="260.676" y="193.912" width="123.42" height="10.706" fill="#fff"></rect>
    <rect x="260.676" y="169.759" width="123.42" height="10.706" fill="#fff"></rect>
    <rect x="260.676" y="218.064" width="123.42" height="10.706" fill="#fff"></rect>
    <rect x="309.241" y="145.606" width="74.855" height="10.706" fill="#fff"></rect>
    <rect x="309.241" y="121.453" width="74.855" height="10.706" fill="#fff"></rect>
  </g>
</svg>